<svg id="Layer_1" data-name="Layer 1" xmlns="http://www.w3.org/2000/svg" xmlns:xlink="http://www.w3.org/1999/xlink" viewBox="0 0 518.4 175.58"><defs><style>.cls-1{fill:url(#linear-gradient);}</style><linearGradient id="linear-gradient" x1="91.48" y1="264.06" x2="408.52" y2="-52.99" gradientUnits="userSpaceOnUse"><stop offset="0" stop-color="#1c75bc"/><stop offset="1" stop-color="#00aeef"/></linearGradient></defs><path id="pooltapes" class="cls-1" d="M497.15,86.44H465l-.69,0-.69,0A11.26,11.26,0,0,1,463.76,64h49.41a5.17,5.17,0,0,0,5.21-4.51,5,5,0,0,0-5-5.5H464.34a21.25,21.25,0,0,0-.36,42.5h33.75a11.26,11.26,0,0,1,0,22.49H413.09a20,20,0,0,1-18.41-12.21,2,2,0,0,1,1.85-2.77h41.55a5,5,0,0,0,5-5h0a28.52,28.52,0,0,0-.43-5,30,30,0,0,0-53-13.67,2,2,0,0,1-3.44-.64A37.15,37.15,0,0,0,321.68,68.1a2,2,0,0,1-3.58-1.23V59h0a5.05,5.05,0,0,0-7.62-4.32,4.54,4.54,0,0,0-2.38,4.44.43.43,0,0,1,0,0v8.21A5,5,0,0,1,301,71.85,29.8,29.8,0,0,0,288.1,69a29.5,29.5,0,0,0-4.73.38,25,25,0,0,0-2.76.57,30,30,0,0,0-18.05,44.77,2,2,0,0,1-1.11,3,27.19,27.19,0,0,1-9,1.27c-15-.34-26.86-13-26.86-28.09v-49a5,5,0,0,1,5-5h28.77l.41,0a5,5,0,0,0,0-10l-.41,0H230.61a5,5,0,0,1-5-5V5a5,5,0,0,0-5.49-5,5.16,5.16,0,0,0-4.51,5.2V21.85a5,5,0,0,1-5,5h-3a2,2,0,0,1-2-2V5.22A5.15,5.15,0,0,0,201.1,0a5,5,0,0,0-5.49,5V70.64a2,2,0,0,1-3.68,1.06,37.45,37.45,0,0,0-65.23,2.71A5,5,0,0,1,119,76a29.9,29.9,0,0,0-42.51,4A2,2,0,0,1,73,79.38,37.53,37.53,0,0,0,36.67,54C16.16,54.4,0,71.66,0,92.17v78.18a5.16,5.16,0,0,0,4.51,5.2,5,5,0,0,0,5.49-5v-43a5,5,0,0,1,7.57-4.3,37.47,37.47,0,0,0,51.52-11.59,2,2,0,0,1,3.48.25A30,30,0,0,0,124,116.5a5,5,0,0,1,7.87-.4,37.51,37.51,0,0,0,60.05-4.74,2,2,0,0,1,3.71,1v11.35a5.15,5.15,0,0,0,4.51,5.19,5,5,0,0,0,5.49-5V38.85a2,2,0,0,1,2-2h3a5,5,0,0,1,5,5V90.73c0,20.76,16.56,38.12,37.32,38.22a37.34,37.34,0,0,0,16.39-3.67,5.13,5.13,0,0,1,4.64.12,30,30,0,0,0,39.13-9.87v54.82a5.16,5.16,0,0,0,4.51,5.2,5,5,0,0,0,5.49-5v-43a5,5,0,0,1,7.57-4.3,37.46,37.46,0,0,0,51.7-11.88,2,2,0,0,1,3.49.17,30,30,0,0,0,27.24,17.43h84.06a21.26,21.26,0,0,0,0-42.51ZM394.68,91.17a20,20,0,0,1,36.82,0,2,2,0,0,1-1.85,2.77H396.53A2,2,0,0,1,394.68,91.17ZM64.91,93.68A27.5,27.5,0,1,1,35.27,64,27.6,27.6,0,0,1,64.91,93.68ZM119.55,101A20,20,0,1,1,97.61,79.05,20.07,20.07,0,0,1,119.55,101Zm68-7.31A27.5,27.5,0,1,1,157.88,64,27.6,27.6,0,0,1,187.52,93.68Zm120.54,6.56a20.13,20.13,0,0,1-20.52,18.69,20,20,0,0,1,.56-40h.37A20,20,0,0,1,308.06,100.24ZM378,93.68A27.5,27.5,0,1,1,348.36,64,27.6,27.6,0,0,1,378,93.68Z"/></svg>