<svg id="Layer_1" data-name="Layer 1" xmlns="http://www.w3.org/2000/svg" xmlns:xlink="http://www.w3.org/1999/xlink" viewBox="0 0 82 82"><defs><style>.cls-1{fill:#001e33;}.cls-2{fill:url(#linear-gradient);}</style><linearGradient id="linear-gradient" x1="22.14" y1="60.74" x2="61.34" y2="21.54" gradientUnits="userSpaceOnUse"><stop offset="0" stop-color="#1c75bc"/><stop offset="1" stop-color="#00aeef"/></linearGradient></defs><circle class="cls-1" cx="41" cy="41" r="41"/><path id="oO" class="cls-2" d="M54.64,21.35a18,18,0,0,0-17,9.79,2.41,2.41,0,0,1-3.71.77,14.4,14.4,0,1,0,2.41,19.43,2.4,2.4,0,0,1,3.77-.19,18,18,0,1,0,14.5-29.8Zm-29,31.12a9.6,9.6,0,1,1,8.57-8.57A9.6,9.6,0,0,1,25.67,52.47Zm29.11,0A13.2,13.2,0,1,1,66.86,40.39,13.21,13.21,0,0,1,54.78,52.48Z"/></svg>